<mxfile>
    <diagram id="npV76rbQIyxqmrXlsT3M" name="Page-1">
        <mxGraphModel dx="1120" dy="771" grid="1" gridSize="10" guides="1" tooltips="1" connect="1" arrows="1" fold="1" page="1" pageScale="1" pageWidth="827" pageHeight="1169" math="0" shadow="0">
            <root>
                <mxCell id="0"/>
                <mxCell id="1" parent="0"/>
                <mxCell id="166" value="" style="group" vertex="1" connectable="0" parent="1">
                    <mxGeometry x="25" y="20" width="655" height="535" as="geometry"/>
                </mxCell>
                <mxCell id="128" value="" style="rounded=0;whiteSpace=wrap;html=1;align=left;" parent="166" vertex="1">
                    <mxGeometry x="235" y="40" width="160" height="220" as="geometry"/>
                </mxCell>
                <mxCell id="103" value="MongoDB" style="shape=cylinder3;whiteSpace=wrap;html=1;boundedLbl=1;backgroundOutline=1;size=15;fillColor=#60a917;strokeColor=#2D7600;fontColor=#ffffff;" parent="166" vertex="1">
                    <mxGeometry x="455" y="40" width="60" height="80" as="geometry"/>
                </mxCell>
                <mxCell id="104" value="Redis" style="shape=cylinder3;whiteSpace=wrap;html=1;boundedLbl=1;backgroundOutline=1;size=15;fillColor=#a20025;strokeColor=#6F0000;fontColor=#ffffff;" parent="166" vertex="1">
                    <mxGeometry x="285" y="367.5" width="60" height="80" as="geometry"/>
                </mxCell>
                <mxCell id="105" value="Client" style="rounded=0;whiteSpace=wrap;html=1;fillColor=#1ba1e2;strokeColor=#006EAF;fontColor=#ffffff;" parent="166" vertex="1">
                    <mxGeometry x="35" y="70" width="120" height="60" as="geometry"/>
                </mxCell>
                <mxCell id="146" style="edgeStyle=orthogonalEdgeStyle;rounded=0;orthogonalLoop=1;jettySize=auto;html=1;entryX=1;entryY=0.75;entryDx=0;entryDy=0;" parent="166" source="110" target="105" edge="1">
                    <mxGeometry relative="1" as="geometry">
                        <Array as="points">
                            <mxPoint x="215" y="115"/>
                            <mxPoint x="215" y="115"/>
                        </Array>
                    </mxGeometry>
                </mxCell>
                <mxCell id="110" value="Flask" style="rounded=0;whiteSpace=wrap;html=1;fillColor=#0050ef;strokeColor=#001DBC;fontColor=#ffffff;" parent="166" vertex="1">
                    <mxGeometry x="255" y="70" width="120" height="60" as="geometry"/>
                </mxCell>
                <mxCell id="134" style="edgeStyle=orthogonalEdgeStyle;rounded=0;orthogonalLoop=1;jettySize=auto;html=1;entryX=0;entryY=0.5;entryDx=0;entryDy=0;" parent="166" source="105" target="110" edge="1">
                    <mxGeometry relative="1" as="geometry">
                        <mxPoint x="235" y="100" as="targetPoint"/>
                        <Array as="points"/>
                    </mxGeometry>
                </mxCell>
                <mxCell id="148" style="edgeStyle=orthogonalEdgeStyle;rounded=0;orthogonalLoop=1;jettySize=auto;html=1;entryX=0.5;entryY=0;entryDx=0;entryDy=0;exitX=0.5;exitY=0;exitDx=0;exitDy=0;" parent="166" source="105" target="110" edge="1">
                    <mxGeometry relative="1" as="geometry">
                        <Array as="points">
                            <mxPoint x="95" y="20"/>
                            <mxPoint x="315" y="20"/>
                        </Array>
                    </mxGeometry>
                </mxCell>
                <mxCell id="141" style="edgeStyle=orthogonalEdgeStyle;rounded=0;orthogonalLoop=1;jettySize=auto;html=1;exitX=0.25;exitY=0;exitDx=0;exitDy=0;entryX=0.25;entryY=1;entryDx=0;entryDy=0;" parent="166" source="124" target="110" edge="1">
                    <mxGeometry relative="1" as="geometry"/>
                </mxCell>
                <mxCell id="144" style="edgeStyle=orthogonalEdgeStyle;rounded=0;orthogonalLoop=1;jettySize=auto;html=1;entryX=0.5;entryY=0;entryDx=0;entryDy=0;entryPerimeter=0;" parent="166" source="124" target="104" edge="1">
                    <mxGeometry relative="1" as="geometry"/>
                </mxCell>
                <mxCell id="124" value="Celery Client" style="rounded=0;whiteSpace=wrap;html=1;fillColor=#fa6800;strokeColor=#C73500;fontColor=#ffffff;" parent="166" vertex="1">
                    <mxGeometry x="255" y="180" width="120" height="60" as="geometry"/>
                </mxCell>
                <mxCell id="140" style="edgeStyle=orthogonalEdgeStyle;rounded=0;orthogonalLoop=1;jettySize=auto;html=1;exitX=0.75;exitY=1;exitDx=0;exitDy=0;entryX=0.75;entryY=0;entryDx=0;entryDy=0;" parent="166" source="110" target="124" edge="1">
                    <mxGeometry relative="1" as="geometry"/>
                </mxCell>
                <mxCell id="135" value="1" style="text;html=1;strokeColor=none;fillColor=none;align=center;verticalAlign=middle;whiteSpace=wrap;rounded=0;" parent="166" vertex="1">
                    <mxGeometry x="175" y="80" width="40" height="20" as="geometry"/>
                </mxCell>
                <mxCell id="139" value="2" style="text;html=1;strokeColor=none;fillColor=none;align=center;verticalAlign=middle;whiteSpace=wrap;rounded=0;" parent="166" vertex="1">
                    <mxGeometry x="405" y="130" width="40" height="20" as="geometry"/>
                </mxCell>
                <mxCell id="143" value="5" style="text;html=1;strokeColor=none;fillColor=none;align=center;verticalAlign=middle;whiteSpace=wrap;rounded=0;" parent="166" vertex="1">
                    <mxGeometry x="245" y="140" width="40" height="20" as="geometry"/>
                </mxCell>
                <mxCell id="145" value="4" style="text;html=1;strokeColor=none;fillColor=none;align=center;verticalAlign=middle;whiteSpace=wrap;rounded=0;" parent="166" vertex="1">
                    <mxGeometry x="315" y="290" width="40" height="20" as="geometry"/>
                </mxCell>
                <mxCell id="147" value="6" style="text;html=1;strokeColor=none;fillColor=none;align=center;verticalAlign=middle;whiteSpace=wrap;rounded=0;" parent="166" vertex="1">
                    <mxGeometry x="175" y="120" width="40" height="20" as="geometry"/>
                </mxCell>
                <mxCell id="149" value="7" style="text;html=1;strokeColor=none;fillColor=none;align=center;verticalAlign=middle;whiteSpace=wrap;rounded=0;" parent="166" vertex="1">
                    <mxGeometry x="175" width="40" height="20" as="geometry"/>
                </mxCell>
                <mxCell id="150" value="" style="group" parent="166" vertex="1" connectable="0">
                    <mxGeometry x="415" y="280" width="160" height="255" as="geometry"/>
                </mxCell>
                <mxCell id="129" value="" style="rounded=0;whiteSpace=wrap;html=1;align=left;" parent="150" vertex="1">
                    <mxGeometry width="160" height="255" as="geometry"/>
                </mxCell>
                <mxCell id="106" value="Celery Workers" style="rounded=0;whiteSpace=wrap;html=1;fillColor=#76608a;strokeColor=#432D57;fontColor=#ffffff;" parent="150" vertex="1">
                    <mxGeometry x="20.720000000000027" y="20" width="118.57" height="55" as="geometry"/>
                </mxCell>
                <mxCell id="125" value="Celery Workers" style="rounded=0;whiteSpace=wrap;html=1;fillColor=#76608a;strokeColor=#432D57;fontColor=#ffffff;" parent="150" vertex="1">
                    <mxGeometry x="20.720000000000027" y="180" width="118.57" height="55" as="geometry"/>
                </mxCell>
                <mxCell id="126" value="Celery Workers" style="rounded=0;whiteSpace=wrap;html=1;fillColor=#76608a;strokeColor=#432D57;fontColor=#ffffff;" parent="150" vertex="1">
                    <mxGeometry x="20.730000000000018" y="100" width="118.57" height="55" as="geometry"/>
                </mxCell>
                <mxCell id="151" style="edgeStyle=orthogonalEdgeStyle;rounded=0;orthogonalLoop=1;jettySize=auto;html=1;exitX=1;exitY=0;exitDx=0;exitDy=27.5;exitPerimeter=0;entryX=0;entryY=0.25;entryDx=0;entryDy=0;" parent="166" source="104" target="129" edge="1">
                    <mxGeometry relative="1" as="geometry">
                        <Array as="points">
                            <mxPoint x="375" y="395"/>
                            <mxPoint x="375" y="344"/>
                        </Array>
                    </mxGeometry>
                </mxCell>
                <mxCell id="153" style="edgeStyle=orthogonalEdgeStyle;rounded=0;orthogonalLoop=1;jettySize=auto;html=1;exitX=1;exitY=0;exitDx=0;exitDy=52.5;exitPerimeter=0;entryX=0;entryY=0.75;entryDx=0;entryDy=0;" parent="166" source="104" target="129" edge="1">
                    <mxGeometry relative="1" as="geometry">
                        <Array as="points">
                            <mxPoint x="375" y="420"/>
                            <mxPoint x="375" y="471"/>
                        </Array>
                    </mxGeometry>
                </mxCell>
                <mxCell id="154" style="edgeStyle=orthogonalEdgeStyle;rounded=0;orthogonalLoop=1;jettySize=auto;html=1;entryX=1;entryY=1;entryDx=0;entryDy=-15;entryPerimeter=0;" parent="166" source="106" target="103" edge="1">
                    <mxGeometry relative="1" as="geometry">
                        <Array as="points">
                            <mxPoint x="595" y="327"/>
                            <mxPoint x="595" y="105"/>
                        </Array>
                    </mxGeometry>
                </mxCell>
                <mxCell id="155" style="edgeStyle=orthogonalEdgeStyle;rounded=0;orthogonalLoop=1;jettySize=auto;html=1;entryX=1;entryY=0.5;entryDx=0;entryDy=0;entryPerimeter=0;" parent="166" source="126" target="103" edge="1">
                    <mxGeometry relative="1" as="geometry">
                        <Array as="points">
                            <mxPoint x="625" y="407"/>
                            <mxPoint x="625" y="80"/>
                        </Array>
                    </mxGeometry>
                </mxCell>
                <mxCell id="156" style="edgeStyle=orthogonalEdgeStyle;rounded=0;orthogonalLoop=1;jettySize=auto;html=1;entryX=1;entryY=0;entryDx=0;entryDy=15;entryPerimeter=0;" parent="166" source="125" target="103" edge="1">
                    <mxGeometry relative="1" as="geometry">
                        <Array as="points">
                            <mxPoint x="655" y="487"/>
                            <mxPoint x="655" y="55"/>
                        </Array>
                    </mxGeometry>
                </mxCell>
                <mxCell id="158" value="Async" style="ellipse;whiteSpace=wrap;html=1;aspect=fixed;" vertex="1" parent="166">
                    <mxGeometry x="605" y="220" width="40" height="40" as="geometry"/>
                </mxCell>
                <mxCell id="157" value="Async" style="ellipse;whiteSpace=wrap;html=1;aspect=fixed;" vertex="1" parent="166">
                    <mxGeometry x="345" y="387.5" width="40" height="40" as="geometry"/>
                </mxCell>
                <mxCell id="152" style="edgeStyle=orthogonalEdgeStyle;rounded=0;orthogonalLoop=1;jettySize=auto;html=1;exitX=1;exitY=0.5;exitDx=0;exitDy=0;exitPerimeter=0;entryX=0;entryY=0.5;entryDx=0;entryDy=0;" parent="166" source="157" target="129" edge="1">
                    <mxGeometry relative="1" as="geometry"/>
                </mxCell>
                <mxCell id="159" style="edgeStyle=orthogonalEdgeStyle;rounded=0;orthogonalLoop=1;jettySize=auto;html=1;exitX=1;exitY=0.5;exitDx=0;exitDy=0;exitPerimeter=0;entryX=0;entryY=0.5;entryDx=0;entryDy=0;" edge="1" parent="166" source="104" target="157">
                    <mxGeometry relative="1" as="geometry">
                        <mxPoint x="345" y="407.5" as="sourcePoint"/>
                        <mxPoint x="415" y="407.5" as="targetPoint"/>
                    </mxGeometry>
                </mxCell>
                <mxCell id="161" value="&lt;h1&gt;&lt;span&gt;Flow&lt;/span&gt;&lt;/h1&gt;&lt;div&gt;&lt;span&gt;1. Send webm audio file to server&lt;/span&gt;&lt;/div&gt;&lt;div&gt;2. Upload file to storage bucket&lt;/div&gt;&lt;div&gt;3. Send task to celery client&lt;/div&gt;&lt;div&gt;4. Celery client queues task in redis&lt;/div&gt;&lt;div&gt;5. Celery client sends task id to flask server&lt;/div&gt;&lt;div&gt;6. Send task id and poll url to client&lt;/div&gt;&lt;div&gt;7. Poll the recieved url till task is completed&lt;/div&gt;" style="text;html=1;strokeColor=#001DBC;fillColor=#0050ef;spacing=5;spacingTop=-20;whiteSpace=wrap;overflow=hidden;rounded=0;fontColor=#ffffff;" vertex="1" parent="166">
                    <mxGeometry y="160" width="190" height="210" as="geometry"/>
                </mxCell>
                <mxCell id="162" value="Google storage bucket" style="shape=datastore;whiteSpace=wrap;html=1;" vertex="1" parent="166">
                    <mxGeometry x="445" y="180" width="100" height="60" as="geometry"/>
                </mxCell>
                <mxCell id="164" value="3" style="text;html=1;strokeColor=none;fillColor=none;align=center;verticalAlign=middle;whiteSpace=wrap;rounded=0;" vertex="1" parent="166">
                    <mxGeometry x="345" y="140" width="40" height="20" as="geometry"/>
                </mxCell>
                <mxCell id="165" value="&lt;h1&gt;&lt;span&gt;Async&lt;/span&gt;&lt;/h1&gt;&lt;div&gt;&lt;span&gt;1. Pick up task from redis queue&lt;/span&gt;&lt;/div&gt;&lt;div&gt;2. Process task&lt;br&gt;&amp;nbsp; &amp;nbsp; &amp;nbsp; + Download file from GCS&lt;/div&gt;&lt;div&gt;&amp;nbsp; &amp;nbsp; &amp;nbsp; + Convert webm to wav&lt;/div&gt;&lt;div&gt;&amp;nbsp; &amp;nbsp; &amp;nbsp; + Get transcript for audio&lt;/div&gt;&lt;div&gt;&amp;nbsp; &amp;nbsp; &amp;nbsp; + Process audio for stats&lt;/div&gt;&lt;div&gt;&amp;nbsp; &amp;nbsp; &amp;nbsp; + Save stats to DB&lt;/div&gt;&lt;div&gt;&lt;br&gt;&lt;/div&gt;" style="text;html=1;strokeColor=#001DBC;fillColor=#0050ef;spacing=5;spacingTop=-20;whiteSpace=wrap;overflow=hidden;rounded=0;fontColor=#ffffff;" vertex="1" parent="166">
                    <mxGeometry y="370" width="190" height="150" as="geometry"/>
                </mxCell>
                <mxCell id="163" style="edgeStyle=orthogonalEdgeStyle;rounded=0;orthogonalLoop=1;jettySize=auto;html=1;entryX=0;entryY=0.5;entryDx=0;entryDy=0;" edge="1" parent="166" source="110" target="162">
                    <mxGeometry relative="1" as="geometry"/>
                </mxCell>
            </root>
        </mxGraphModel>
    </diagram>
</mxfile>